External Loads File
version=1
nRows=39
nColumns=13
Range=5.000000e-03-10 seconds
endheader
time 	forceRightX 	forceRightY 	forceRightZ 	pointRightX 	pointRightY 	pointRightZ 	forceLeftX 	forceLeftY 	forceLeftZ 	pointLeftX 	pointLeftY 	pointLeftZ 		
0.005000 19.262945 60.131440 -0.000000 0.357145 0.398003 -0.162468 39.815676 102.831567 -0.000000 0.055537 0.253862 -0.398353
0.010000 19.947204 60.919815 -0.000000 0.357156 0.397947 -0.162466 38.135871 101.528360 -0.000000 0.055523 0.253932 -0.398346
0.015000 20.602924 61.636638 -0.000000 0.357173 0.397884 -0.162462 36.503724 100.274985 -0.000000 0.055508 0.253987 -0.398342
0.020000 21.187555 62.214044 -0.000000 0.357175 0.397818 -0.162461 34.996261 99.129050 -0.000000 0.055496 0.254066 -0.398343
0.025000 21.617715 62.657804 -0.000000 0.357096 0.398087 -0.162408 33.584078 98.180366 -0.000000 0.055442 0.254110 -0.398354
0.030000 22.046333 62.937556 -0.000000 0.357077 0.397981 -0.162378 32.544062 97.386273 -0.000000 0.055430 0.254195 -0.398360
0.035000 22.400197 63.106858 -0.000000 0.357084 0.397908 -0.162383 31.774792 96.798725 -0.000000 0.055412 0.254258 -0.398381
0.040000 22.667436 63.180193 -0.000000 0.357074 0.397853 -0.162372 31.290976 96.400069 -0.000000 0.055404 0.254352 -0.398395
0.045000 22.832891 63.168685 -0.000000 0.357077 0.397765 -0.162361 31.108278 96.172365 -0.000000 0.055381 0.254441 -0.398402
0.050000 22.893388 63.102655 -0.000000 0.357089 0.397680 -0.162363 31.234224 96.122406 -0.000000 0.055369 0.254515 -0.398413
0.055000 22.895582 63.018531 -0.000000 0.357112 0.397584 -0.162364 31.692126 96.251878 -0.000000 0.055369 0.254608 -0.398412
0.060000 22.879074 62.956447 -0.000000 0.357139 0.397478 -0.162369 32.411087 96.540151 -0.000000 0.055349 0.254667 -0.398418
0.065000 22.884684 62.937286 -0.000000 0.357169 0.397376 -0.162360 33.248724 96.906836 -0.000000 0.055336 0.254748 -0.398421
0.070000 22.921365 62.965143 -0.000000 0.357211 0.397281 -0.162347 33.993505 97.237832 -0.000000 0.055324 0.254841 -0.398412
0.075000 22.974598 63.023470 -0.000000 0.357242 0.397165 -0.162346 34.461761 97.429922 -0.000000 0.055314 0.254909 -0.398431
0.080000 23.025175 63.080300 -0.000000 0.357283 0.397084 -0.162354 34.589022 97.438496 -0.000000 0.055290 0.254980 -0.398432
0.085000 23.077440 63.097138 -0.000000 0.357307 0.396994 -0.162342 34.468727 97.290302 -0.000000 0.055275 0.255087 -0.398442
0.090000 23.119431 63.052826 -0.000000 0.357352 0.396916 -0.162353 34.255908 97.083017 -0.000000 0.055258 0.255160 -0.398443
0.095000 23.135940 62.940877 -0.000000 0.357388 0.396845 -0.162351 34.142677 96.926382 -0.000000 0.055238 0.255228 -0.398442
0.100000 23.102745 62.774547 -0.000000 0.357432 0.396755 -0.162349 34.253360 96.901187 -0.000000 0.055227 0.255301 -0.398459
0.105000 22.987966 62.583869 -0.000000 0.357463 0.396704 -0.162344 34.539787 97.033673 -0.000000 0.055219 0.255343 -0.398455
0.110000 22.824075 62.382940 -0.000000 0.357493 0.396643 -0.162339 34.883675 97.255917 -0.000000 0.055216 0.255406 -0.398474
0.115000 22.631257 62.192222 -0.000000 0.357519 0.396604 -0.162326 35.078735 97.476548 -0.000000 0.055218 0.255462 -0.398468
0.120000 22.445128 62.019374 -0.000000 0.357547 0.396553 -0.162330 35.002990 97.606821 -0.000000 0.055221 0.255507 -0.398472
0.125000 22.267253 61.869320 -0.000000 0.357554 0.396538 -0.162326 34.623181 97.616615 -0.000000 0.055228 0.255541 -0.398470
0.130000 22.115278 61.729261 -0.000000 0.357564 0.396514 -0.162321 34.053417 97.509319 -0.000000 0.055232 0.255614 -0.398475
0.135000 21.976721 61.597040 -0.000000 0.357570 0.396495 -0.162316 33.384037 97.327667 -0.000000 0.055239 0.255644 -0.398460
0.140000 21.882258 61.461604 -0.000000 0.357575 0.396459 -0.162310 32.731055 97.089122 -0.000000 0.055248 0.255662 -0.398458
0.145000 21.845504 61.324452 -0.000000 0.357571 0.396457 -0.162322 32.157723 96.815611 -0.000000 0.055267 0.255691 -0.398462
0.150000 21.876676 61.194028 -0.000000 0.357565 0.396447 -0.162313 31.731953 96.535651 -0.000000 0.055287 0.255702 -0.398467
0.155000 21.972888 61.086175 -0.000000 0.357572 0.396444 -0.162324 31.512383 96.292760 -0.000000 0.055306 0.255720 -0.398473
0.160000 22.120182 61.014489 -0.000000 0.357576 0.396431 -0.162318 31.541350 96.141676 -0.000000 0.055315 0.255713 -0.398469
0.165000 22.295557 60.979732 -0.000000 0.357567 0.396456 -0.162321 31.844957 96.135497 -0.000000 0.055333 0.255721 -0.398467
0.170000 22.474276 60.966614 -0.000000 0.357574 0.396473 -0.162323 32.426175 96.299356 -0.000000 0.055354 0.255710 -0.398466
0.175000 22.631725 60.955391 -0.000000 0.357573 0.396472 -0.162324 33.235137 96.618126 -0.000000 0.055382 0.255704 -0.398459
0.180000 22.746489 60.936283 -0.000000 0.357581 0.396506 -0.162335 34.150089 97.044048 -0.000000 0.055401 0.255673 -0.398454
0.185000 22.840138 60.899975 -0.000000 0.357573 0.396513 -0.162328 35.035769 97.485356 -0.000000 0.055410 0.255648 -0.398452
0.190000 22.916141 60.854555 -0.000000 0.357572 0.396545 -0.162332 35.681831 97.849657 -0.000000 0.055419 0.255632 -0.398449
0.195000 22.985701 60.812923 -0.000000 0.357563 0.396546 -0.162338 35.919191 98.053356 -0.000000 0.055439 0.255624 -0.398440
